<svg version="1.1" id="statamic-mark-svg" xmlns="http://www.w3.org/2000/svg" xmlns:xlink="http://www.w3.org/1999/xlink" x="0px" y="0px"
	 viewBox="0 0 344 218" enable-background="new 0 0 344 218" xml:space="preserve">
<g>
	<path d="M44.6,194.3c-0.4-3-0.3-10.3-0.3-10.3h-4.2c-9.5,0-13.2-3.6-13.2-13.1V133c0-17-4-21.2-12-23.9v-0.8c8-2.7,12-7,12-24.1
		V46.6C27,37.1,30.7,34,40.2,34h4.2c0,0,0.2-6.5,0.7-10.3c-2-0.3-9.5-0.4-9.5-0.4C16.4,23.3,11,32.6,11,51.7V86c0,14-8,15.9-11,15.9
		v13.6c3,0,11,1.9,11,15.7v34.5c0,19.1,5.4,28.1,24.5,28.1C35.5,193.9,43,194.3,44.6,194.3z"/>
	<path d="M33,117.7c7,0,17,2.4,17,20v43.9C50,206,55.8,218,80.2,218H91v-13h-5.5c-12.1,0-16.5-4.8-16.5-16.9v-48.3
		c0-21.7-7-27-19-30.4v-1c12-3.4,19-8.9,19-30.6v-48C69,17.8,73.4,14,85.5,14H91V0H80.2C55.8,0,50,12,50,36.3V80
		c0,17.9-10,20.3-17,20.3V117.7z"/>
	<path d="M197.7,173.6c6.7-1.9,12.3-4.6,16.9-8.1c4.6-3.5,8.2-7.8,10.7-12.9c2.5-5.1,3.8-10.8,3.8-17c0-5.4-1-10.1-2.8-13.9
		c-1.9-3.9-4.9-7.3-9.1-10.2c-4.2-3-9.5-5.6-16-7.9c-6.5-2.3-14.3-4.6-23.5-6.9c-9.9-2.5-16.7-4.7-20.6-6.7c-3.9-2-5.8-5.2-5.8-9.6
		c0-5.1,2-8.8,6-11.1c4-2.3,9-3.5,14.9-3.5c6.4,0,12.8,1,19.2,3.1c6.4,2.1,13.2,5.4,20.5,10l13.6-20.5c-7.9-4.9-16.4-8.8-25.5-11.7
		c-9.1-2.9-18.3-4.3-27.5-4.3c-7.4,0-14.3,1-20.6,3c-6.3,2-11.8,4.8-16.5,8.5c-4.7,3.7-8.3,8.2-11,13.4c-2.6,5.3-3.9,11.2-3.9,17.7
		c0,4.9,0.8,9.2,2.5,12.8c1.6,3.6,4.3,6.8,7.9,9.6c3.6,2.8,8.4,5.3,14.3,7.4c5.9,2.1,13.1,4.2,21.5,6.2c11,2.6,18.9,5.1,23.5,7.3
		c4.7,2.2,7,5.6,7,10.2c0,4.6-2,8.1-5.9,10.6c-3.9,2.5-9.4,3.7-16.3,3.7c-15.3,0-31.1-5.3-47.6-16l-13.3,22.4
		c3.8,2.6,8.1,5,13.1,7.1c4.9,2.1,10.1,3.9,15.5,5.4c5.4,1.5,11,2.6,16.6,3.5c5.7,0.8,11.1,1.2,16.4,1.2
		C183.7,176.4,191.1,175.5,197.7,173.6z"/>
	<path d="M304.8,34c9.5,0,12.2,3.1,12.2,12.6v37.7c0,17,3,21.4,15,24.1v0.8c-12,2.7-15,6.8-15,23.9v37.9c0,9.5-2.7,13.1-12.2,13.1
		h-4.2c0,0,0,7.3-0.5,10.3c1.7,0,8.3-0.2,8.3-0.2c19.1,0,23.6-9.2,23.6-28.4v-34.5c0-13.8,8-15.7,12-15.7v-13.6c-4,0-12-1.9-12-15.9
		V51.7c0-19.1-4.4-28.4-23.6-28.4c0,0-6.8,0.1-8.7,0.4c0.4,3.8,0.9,10.3,0.9,10.3H304.8z"/>
	<path d="M293,181.6v-43.9c0-17.6,10-20,17-20v-17.4c-7,0-17-2.4-17-20.3V36.3C293,12,289.1,0,264.8,0H253v14h6.4
		c12.1,0,15.6,3.8,15.6,15.8v48c0,21.7,6,27.3,18,30.6v1c-12,3.4-18,8.7-18,30.4v48.3c0,12.1-3.5,16.9-15.6,16.9H253v13h11.8
		C289.1,218,293,206,293,181.6z"/>
</g>
<g>
</g>
<g>
</g>
<g>
</g>
<g>
</g>
<g>
</g>
<g>
</g>
<g>
</g>
<g>
</g>
<g>
</g>
<g>
</g>
<g>
</g>
<g>
</g>
<g>
</g>
<g>
</g>
<g>
</g>
</svg>
